<?xml version="1.0" encoding="UTF-8" standalone="no"?>
<!DOCTYPE svg PUBLIC "-//W3C//DTD SVG 1.1//EN"
 "http://www.w3.org/Graphics/SVG/1.1/DTD/svg11.dtd">
<!-- Generated by graphviz version 2.40.1 (20161225.0304)
 -->
<!-- Title: G Pages: 1 -->
<svg width="530pt" height="468pt"
 viewBox="0.00 0.00 530.38 468.00" xmlns="http://www.w3.org/2000/svg" xmlns:xlink="http://www.w3.org/1999/xlink">
<g id="graph0" class="graph" transform="scale(1 1) rotate(0) translate(4 464)">
<title>G</title>
<polygon fill="#ffffff" stroke="transparent" points="-4,4 -4,-464 526.375,-464 526.375,4 -4,4"/>
<text text-anchor="middle" x="261.1875" y="-446.4" font-family="gotham-book,sans-serif" font-size="12.00" fill="#000000">6011ef511522c95d7d7a</text>
<g id="clust1" class="cluster">
<title>cluster_0</title>
<polygon fill="#f2f2f2" stroke="#8c8c8c" points="91.4395,-80 91.4395,-186 511.375,-186 511.375,-80 91.4395,-80"/>
<text text-anchor="middle" x="301.4072" y="-172.4" font-family="gotham-book,sans-serif" font-size="12.00" fill="#474747">main [entry] [initial]</text>
</g>
<g id="clust2" class="cluster">
<title>cluster_jquery</title>
<g id="a_clust2"><a xlink:href="https://www.npmjs.com/package/jquery" xlink:title="jquery" target="npm">
<polygon fill="#d8d8d8" stroke="#727272" points="415.5762,-88 415.5762,-150 503.375,-150 503.375,-88 415.5762,-88"/>
<text text-anchor="middle" x="459.4756" y="-136.4" font-family="gotham-book,sans-serif" font-size="12.00" fill="#474747">jquery</text>
</a>
</g>
</g>
<!-- 0 -->
<g id="node1" class="node">
<title>0</title>
<g id="a_node1"><a xlink:href="https://unpkg.com/jquery/dist/jquery.js" xlink:title="jquery.js" target="_blank">
<polygon fill="#cdefc2" stroke="#51b530" points="495.2747,-122 423.6765,-122 423.6765,-96 495.2747,-96 495.2747,-122"/>
<text text-anchor="middle" x="459.4756" y="-105.4" font-family="gotham-book,sans-serif" font-size="12.00" fill="#185902">jquery.js</text>
</a>
</g>
</g>
<!-- 1 -->
<g id="node2" class="node">
<title>1</title>
<polygon fill="#cdefc2" stroke="#51b530" points="142.4541,-144.3333 99.4346,-144.3333 99.4346,-121.6667 142.4541,-121.6667 142.4541,-116 159.4541,-133 142.4541,-150 142.4541,-144.3333"/>
<text text-anchor="middle" x="129.4443" y="-129.4" font-family="gotham-book,sans-serif" font-size="12.00" fill="#185902">main.js</text>
</g>
<!-- 2 -->
<g id="node3" class="node">
<title>2</title>
<polygon fill="#cdefc2" stroke="#51b530" points="375.4206,-114 307.0442,-114 307.0442,-88 375.4206,-88 375.4206,-114"/>
<text text-anchor="middle" x="341.2324" y="-97.4" font-family="gotham-book,sans-serif" font-size="12.00" fill="#185902">index.js</text>
</g>
<!-- 1&#45;&gt;2 -->
<g id="edge1" class="edge">
<title>1&#45;&gt;2</title>
<path fill="none" stroke="#b53030" d="M150.375,-115.6628C150.375,-108.2607 150.375,-101.2941 150.375,-101.2941 150.375,-101.2941 299.1696,-101.2941 299.1696,-101.2941"/>
<polygon fill="#b53030" stroke="#b53030" points="299.1696,-103.9192 306.6696,-101.2941 299.1695,-98.6692 299.1696,-103.9192"/>
</g>
<!-- 3 -->
<g id="node4" class="node">
<title>3</title>
<polygon fill="#cdefc2" stroke="#51b530" points="374.2422,-158 308.2227,-158 308.2227,-132 374.2422,-132 374.2422,-158"/>
<text text-anchor="middle" x="341.2324" y="-141.4" font-family="gotham-book,sans-serif" font-size="12.00" fill="#185902">main.js</text>
</g>
<!-- 1&#45;&gt;3 -->
<g id="edge2" class="edge">
<title>1&#45;&gt;3</title>
<path fill="none" stroke="#b53030" d="M159.7884,-141C159.7884,-141 300.6551,-141 300.6551,-141"/>
<polygon fill="#b53030" stroke="#b53030" points="300.6551,-143.6251 308.1551,-141 300.655,-138.3751 300.6551,-143.6251"/>
</g>
<!-- 2&#45;&gt;0 -->
<g id="edge3" class="edge">
<title>2&#45;&gt;0</title>
<path fill="none" stroke="#b53030" d="M375.4332,-102.3529C375.4332,-102.3529 415.7908,-102.3529 415.7908,-102.3529"/>
<polygon fill="#b53030" stroke="#b53030" points="415.7909,-104.978 423.2908,-102.3529 415.7908,-99.728 415.7909,-104.978"/>
</g>
<!-- 2&#45;&gt;0 -->
<g id="edge4" class="edge">
<title>2&#45;&gt;0</title>
<path fill="none" stroke="#b53030" d="M375.4332,-103.4118C375.4332,-103.4118 415.7908,-103.4118 415.7908,-103.4118"/>
<polygon fill="#b53030" stroke="#b53030" points="415.7909,-106.0369 423.2908,-103.4118 415.7908,-100.7869 415.7909,-106.0369"/>
</g>
<!-- 2&#45;&gt;0 -->
<g id="edge5" class="edge">
<title>2&#45;&gt;0</title>
<path fill="none" stroke="#b53030" d="M375.4332,-104.4706C375.4332,-104.4706 415.7908,-104.4706 415.7908,-104.4706"/>
<polygon fill="#b53030" stroke="#b53030" points="415.7909,-107.0957 423.2908,-104.4706 415.7908,-101.8457 415.7909,-107.0957"/>
</g>
<!-- 2&#45;&gt;0 -->
<g id="edge6" class="edge">
<title>2&#45;&gt;0</title>
<path fill="none" stroke="#b53030" d="M375.7582,-92.5714C418.4015,-92.5714 485.375,-92.5714 485.375,-92.5714 485.375,-92.5714 485.375,-92.8882 485.375,-92.8882"/>
<polygon fill="#b53030" stroke="#b53030" points="482.7503,-88.2389 485.375,-95.739 488.0003,-88.2391 482.7503,-88.2389"/>
</g>
<!-- 2&#45;&gt;0 -->
<g id="edge7" class="edge">
<title>2&#45;&gt;0</title>
<path fill="none" stroke="#b53030" d="M375.7308,-93.7143C419.2217,-93.7143 488.375,-93.7143 488.375,-93.7143 488.375,-93.7143 488.375,-93.9017 488.375,-93.9017"/>
<polygon fill="#b53030" stroke="#b53030" points="485.7504,-88.0885 488.375,-95.5886 491.0004,-88.0888 485.7504,-88.0885"/>
</g>
<!-- 2&#45;&gt;0 -->
<g id="edge8" class="edge">
<title>2&#45;&gt;0</title>
<path fill="none" stroke="#b53030" d="M375.529,-94.8571C420.1224,-94.8571 492.375,-94.8571 492.375,-94.8571 492.375,-94.8571 492.375,-94.9499 492.375,-94.9499"/>
<polygon fill="#b53030" stroke="#b53030" points="489.7509,-88.2848 492.375,-95.7851 495.0009,-88.2854 489.7509,-88.2848"/>
</g>
<!-- 2&#45;&gt;0 -->
<g id="edge9" class="edge">
<title>2&#45;&gt;0</title>
<path fill="none" stroke="#b53030" d="M361.375,-114.1124C361.375,-119.2776 361.375,-124 361.375,-124 361.375,-124 429.375,-124 429.375,-124 429.375,-124 429.375,-123.8161 429.375,-123.8161"/>
<polygon fill="#b53030" stroke="#b53030" points="432.0005,-129.6605 429.375,-122.1607 426.7505,-129.6609 432.0005,-129.6605"/>
</g>
<!-- 2&#45;&gt;0 -->
<g id="edge10" class="edge">
<title>2&#45;&gt;0</title>
<path fill="none" stroke="#b53030" d="M348.375,-114.0857C348.375,-120.1345 348.375,-126 348.375,-126 348.375,-126 435.375,-126 435.375,-126 435.375,-126 435.375,-125.6057 435.375,-125.6057"/>
<polygon fill="#b53030" stroke="#b53030" points="438.0002,-129.5571 435.375,-122.0571 432.7502,-129.5572 438.0002,-129.5571"/>
</g>
<!-- 2&#45;&gt;0 -->
<g id="edge11" class="edge">
<title>2&#45;&gt;0</title>
<path fill="none" stroke="#b53030" d="M335.375,-114.1836C335.375,-121.0374 335.375,-128 335.375,-128 335.375,-128 440.375,-128 440.375,-128 440.375,-128 440.375,-127.4402 440.375,-127.4402"/>
<polygon fill="#b53030" stroke="#b53030" points="443.0001,-129.9021 440.375,-122.4021 437.7501,-129.9022 443.0001,-129.9021"/>
</g>
<!-- 2&#45;&gt;0 -->
<g id="edge12" class="edge">
<title>2&#45;&gt;0</title>
<path fill="none" stroke="#b53030" d="M322.375,-114.1424C322.375,-121.8154 322.375,-130 322.375,-130 322.375,-130 446.375,-130 446.375,-130 446.375,-130 446.375,-129.2419 446.375,-129.2419"/>
<polygon fill="#b53030" stroke="#b53030" points="449.0001,-129.9185 446.375,-122.4185 443.7501,-129.9186 449.0001,-129.9185"/>
</g>
<!-- 2&#45;&gt;0 -->
<g id="edge13" class="edge">
<title>2&#45;&gt;0</title>
<path fill="none" stroke="#b53030" d="M367.375,-87.8393C367.375,-86.7178 367.375,-86 367.375,-86 367.375,-86 427.375,-86 427.375,-86 427.375,-86 427.375,-88.3876 427.375,-88.3876"/>
<polygon fill="#b53030" stroke="#b53030" points="424.7501,-88.3875 427.375,-95.8876 430.0001,-88.3876 424.7501,-88.3875"/>
</g>
<!-- 2&#45;&gt;0 -->
<g id="edge14" class="edge">
<title>2&#45;&gt;0</title>
<path fill="none" stroke="#b53030" d="M360.375,-87.9429C360.375,-85.6602 360.375,-84 360.375,-84 360.375,-84 431.375,-84 431.375,-84 431.375,-84 431.375,-88.4143 431.375,-88.4143"/>
<polygon fill="#b53030" stroke="#b53030" points="428.7501,-88.4142 431.375,-95.9143 434.0001,-88.4143 428.7501,-88.4142"/>
</g>
<!-- 2&#45;&gt;0 -->
<g id="edge15" class="edge">
<title>2&#45;&gt;0</title>
<path fill="none" stroke="#b53030" d="M352.375,-87.5979C352.375,-84.4539 352.375,-82 352.375,-82 352.375,-82 434.375,-82 434.375,-82 434.375,-82 434.375,-88.3164 434.375,-88.3164"/>
<polygon fill="#b53030" stroke="#b53030" points="431.7501,-88.3163 434.375,-95.8164 437.0001,-88.3164 431.7501,-88.3163"/>
</g>
<!-- 2&#45;&gt;0 -->
<g id="edge16" class="edge">
<title>2&#45;&gt;0</title>
<path fill="none" stroke="#b53030" d="M345.375,-87.5815C345.375,-83.4658 345.375,-80 345.375,-80 345.375,-80 438.375,-80 438.375,-80 438.375,-80 438.375,-88.3576 438.375,-88.3576"/>
<polygon fill="#b53030" stroke="#b53030" points="435.7501,-88.3576 438.375,-95.8576 441.0001,-88.3576 435.7501,-88.3576"/>
</g>
<!-- 2&#45;&gt;0 -->
<g id="edge17" class="edge">
<title>2&#45;&gt;0</title>
<path fill="none" stroke="#b53030" d="M338.375,-87.8876C338.375,-82.7224 338.375,-78 338.375,-78 338.375,-78 442.375,-78 442.375,-78 442.375,-78 442.375,-88.1733 442.375,-88.1733"/>
<polygon fill="#b53030" stroke="#b53030" points="439.7501,-88.1733 442.375,-95.6733 445.0001,-88.1733 439.7501,-88.1733"/>
</g>
<!-- 2&#45;&gt;0 -->
<g id="edge18" class="edge">
<title>2&#45;&gt;0</title>
<path fill="none" stroke="#b53030" d="M330.375,-87.9143C330.375,-81.8655 330.375,-76 330.375,-76 330.375,-76 445.375,-76 445.375,-76 445.375,-76 445.375,-88.4575 445.375,-88.4575"/>
<polygon fill="#b53030" stroke="#b53030" points="442.7501,-88.4575 445.375,-95.9575 448.0001,-88.4576 442.7501,-88.4575"/>
</g>
<!-- 2&#45;&gt;0 -->
<g id="edge19" class="edge">
<title>2&#45;&gt;0</title>
<path fill="none" stroke="#b53030" d="M323.375,-87.8164C323.375,-80.9626 323.375,-74 323.375,-74 323.375,-74 449.375,-74 449.375,-74 449.375,-74 449.375,-88.4673 449.375,-88.4673"/>
<polygon fill="#b53030" stroke="#b53030" points="446.7501,-88.4673 449.375,-95.9673 452.0001,-88.4673 446.7501,-88.4673"/>
</g>
<!-- 2&#45;&gt;0 -->
<g id="edge20" class="edge">
<title>2&#45;&gt;0</title>
<path fill="none" stroke="#b53030" d="M316.375,-87.8576C316.375,-80.1846 316.375,-72 316.375,-72 316.375,-72 452.375,-72 452.375,-72 452.375,-72 452.375,-88.1422 452.375,-88.1422"/>
<polygon fill="#b53030" stroke="#b53030" points="449.7501,-88.1421 452.375,-95.6422 455.0001,-88.1422 449.7501,-88.1421"/>
</g>
<!-- 2&#45;&gt;0 -->
<g id="edge21" class="edge">
<title>2&#45;&gt;0</title>
<path fill="none" stroke="#b53030" d="M306.9157,-89.3333C305.9353,-89.3333 305.375,-89.3333 305.375,-89.3333 305.375,-89.3333 305.375,-42 305.375,-42 305.375,-42 456.375,-42 456.375,-42 456.375,-42 456.375,-88.263 456.375,-88.263"/>
<polygon fill="#b53030" stroke="#b53030" points="453.7501,-88.2629 456.375,-95.763 459.0001,-88.263 453.7501,-88.2629"/>
</g>
<!-- 2&#45;&gt;0 -->
<g id="edge22" class="edge">
<title>2&#45;&gt;0</title>
<path fill="none" stroke="#b53030" d="M306.7933,-91.4118C305.2748,-91.4118 304.375,-91.4118 304.375,-91.4118 304.375,-91.4118 304.375,-40 304.375,-40 304.375,-40 460.375,-40 460.375,-40 460.375,-40 460.375,-88.1961 460.375,-88.1961"/>
<polygon fill="#b53030" stroke="#b53030" points="457.7501,-88.1961 460.375,-95.6961 463.0001,-88.1961 457.7501,-88.1961"/>
</g>
<!-- 2&#45;&gt;0 -->
<g id="edge23" class="edge">
<title>2&#45;&gt;0</title>
<path fill="none" stroke="#b53030" d="M306.8324,-92.8235C304.1039,-92.8235 302.375,-92.8235 302.375,-92.8235 302.375,-92.8235 302.375,-38 302.375,-38 302.375,-38 463.375,-38 463.375,-38 463.375,-38 463.375,-88.4775 463.375,-88.4775"/>
<polygon fill="#b53030" stroke="#b53030" points="460.7501,-88.4775 463.375,-95.9775 466.0001,-88.4775 460.7501,-88.4775"/>
</g>
<!-- 2&#45;&gt;0 -->
<g id="edge24" class="edge">
<title>2&#45;&gt;0</title>
<path fill="none" stroke="#b53030" d="M306.759,-94.2353C302.9286,-94.2353 300.375,-94.2353 300.375,-94.2353 300.375,-94.2353 300.375,-36 300.375,-36 300.375,-36 467.375,-36 467.375,-36 467.375,-36 467.375,-88.4491 467.375,-88.4491"/>
<polygon fill="#b53030" stroke="#b53030" points="464.7501,-88.449 467.375,-95.9491 470.0001,-88.4491 464.7501,-88.449"/>
</g>
<!-- 2&#45;&gt;0 -->
<g id="edge25" class="edge">
<title>2&#45;&gt;0</title>
<path fill="none" stroke="#b53030" d="M306.6383,-95.6471C301.7651,-95.6471 298.375,-95.6471 298.375,-95.6471 298.375,-95.6471 298.375,-34 298.375,-34 298.375,-34 470.375,-34 470.375,-34 470.375,-34 470.375,-88.436 470.375,-88.436"/>
<polygon fill="#b53030" stroke="#b53030" points="467.7501,-88.436 470.375,-95.936 473.0001,-88.436 467.7501,-88.436"/>
</g>
<!-- 2&#45;&gt;0 -->
<g id="edge26" class="edge">
<title>2&#45;&gt;0</title>
<path fill="none" stroke="#b53030" d="M306.676,-112.5882C301.2404,-112.5882 297.375,-112.5882 297.375,-112.5882 297.375,-112.5882 297.375,-162 297.375,-162 297.375,-162 451.375,-162 451.375,-162 451.375,-162 451.375,-129.6011 451.375,-129.6011"/>
<polygon fill="#b53030" stroke="#b53030" points="454.0001,-129.6011 451.375,-122.1011 448.7501,-129.6012 454.0001,-129.6011"/>
</g>
<!-- 2&#45;&gt;0 -->
<g id="edge27" class="edge">
<title>2&#45;&gt;0</title>
<path fill="none" stroke="#b53030" d="M307.0338,-97.0588C298.8229,-97.0588 292.375,-97.0588 292.375,-97.0588 292.375,-97.0588 292.375,-32 292.375,-32 292.375,-32 474.375,-32 474.375,-32 474.375,-32 474.375,-88.438 474.375,-88.438"/>
<polygon fill="#b53030" stroke="#b53030" points="471.7501,-88.438 474.375,-95.938 477.0001,-88.438 471.7501,-88.438"/>
</g>
<!-- 2&#45;&gt;0 -->
<g id="edge28" class="edge">
<title>2&#45;&gt;0</title>
<path fill="none" stroke="#b53030" d="M306.862,-98.4706C296.7662,-98.4706 288.375,-98.4706 288.375,-98.4706 288.375,-98.4706 288.375,-30 288.375,-30 288.375,-30 478.375,-30 478.375,-30 478.375,-30 478.375,-88.4548 478.375,-88.4548"/>
<polygon fill="#b53030" stroke="#b53030" points="475.7501,-88.4547 478.375,-95.9548 481.0001,-88.4548 475.7501,-88.4547"/>
</g>
<!-- 2&#45;&gt;0 -->
<g id="edge29" class="edge">
<title>2&#45;&gt;0</title>
<path fill="none" stroke="#b53030" d="M306.8112,-99.8824C295.3164,-99.8824 285.375,-99.8824 285.375,-99.8824 285.375,-99.8824 285.375,-28 285.375,-28 285.375,-28 481.375,-28 481.375,-28 481.375,-28 481.375,-88.4859 481.375,-88.4859"/>
<polygon fill="#b53030" stroke="#b53030" points="478.7501,-88.4859 481.375,-95.9859 484.0001,-88.486 478.7501,-88.4859"/>
</g>
<!-- 2&#45;&gt;0 -->
<g id="edge30" class="edge">
<title>2&#45;&gt;0</title>
<path fill="none" stroke="#b53030" d="M306.9948,-111.1765C294.0466,-111.1765 282.375,-111.1765 282.375,-111.1765 282.375,-111.1765 282.375,-166 282.375,-166 282.375,-166 457.375,-166 457.375,-166 457.375,-166 457.375,-129.7202 457.375,-129.7202"/>
<polygon fill="#b53030" stroke="#b53030" points="460.0001,-129.7202 457.375,-122.2202 454.7501,-129.7202 460.0001,-129.7202"/>
</g>
<!-- 2&#45;&gt;0 -->
<g id="edge31" class="edge">
<title>2&#45;&gt;0</title>
<path fill="none" stroke="#b53030" d="M306.6866,-109.7647C292.5174,-109.7647 279.375,-109.7647 279.375,-109.7647 279.375,-109.7647 279.375,-170 279.375,-170 279.375,-170 462.375,-170 462.375,-170 462.375,-170 462.375,-129.7361 462.375,-129.7361"/>
<polygon fill="#b53030" stroke="#b53030" points="465.0001,-129.7361 462.375,-122.2361 459.7501,-129.7361 465.0001,-129.7361"/>
</g>
<!-- 2&#45;&gt;0 -->
<g id="edge32" class="edge">
<title>2&#45;&gt;0</title>
<path fill="none" stroke="#b53030" d="M306.7607,-108.3529C290.8264,-108.3529 275.375,-108.3529 275.375,-108.3529 275.375,-108.3529 275.375,-174 275.375,-174 275.375,-174 468.375,-174 468.375,-174 468.375,-174 468.375,-129.6537 468.375,-129.6537"/>
<polygon fill="#b53030" stroke="#b53030" points="471.0001,-129.6537 468.375,-122.1537 465.7501,-129.6538 471.0001,-129.6537"/>
</g>
<!-- 2&#45;&gt;0 -->
<g id="edge33" class="edge">
<title>2&#45;&gt;0</title>
<path fill="none" stroke="#b53030" d="M375.4332,-105.5294C375.4332,-105.5294 415.7908,-105.5294 415.7908,-105.5294"/>
<polygon fill="#b53030" stroke="#b53030" points="415.7909,-108.1545 423.2908,-105.5294 415.7908,-102.9045 415.7909,-108.1545"/>
</g>
<!-- 2&#45;&gt;0 -->
<g id="edge34" class="edge">
<title>2&#45;&gt;0</title>
<path fill="none" stroke="#b53030" d="M375.4332,-106.5882C375.4332,-106.5882 415.7908,-106.5882 415.7908,-106.5882"/>
<polygon fill="#b53030" stroke="#b53030" points="415.7909,-109.2133 423.2908,-106.5882 415.7908,-103.9633 415.7909,-109.2133"/>
</g>
<!-- 2&#45;&gt;0 -->
<g id="edge35" class="edge">
<title>2&#45;&gt;0</title>
<path fill="none" stroke="#b53030" d="M375.4332,-107.6471C375.4332,-107.6471 415.7908,-107.6471 415.7908,-107.6471"/>
<polygon fill="#b53030" stroke="#b53030" points="415.7909,-110.2722 423.2908,-107.6471 415.7908,-105.0222 415.7909,-110.2722"/>
</g>
<!-- 2&#45;&gt;0 -->
<g id="edge36" class="edge">
<title>2&#45;&gt;0</title>
<path fill="none" stroke="#b53030" d="M375.4332,-108.7059C375.4332,-108.7059 415.7908,-108.7059 415.7908,-108.7059"/>
<polygon fill="#b53030" stroke="#b53030" points="415.7909,-111.331 423.2908,-108.7059 415.7908,-106.081 415.7909,-111.331"/>
</g>
<!-- 2&#45;&gt;0 -->
<g id="edge37" class="edge">
<title>2&#45;&gt;0</title>
<path fill="none" stroke="#b53030" d="M375.4332,-109.7647C375.4332,-109.7647 415.7908,-109.7647 415.7908,-109.7647"/>
<polygon fill="#b53030" stroke="#b53030" points="415.7909,-112.3898 423.2908,-109.7647 415.7908,-107.1398 415.7909,-112.3898"/>
</g>
<!-- 2&#45;&gt;0 -->
<g id="edge38" class="edge">
<title>2&#45;&gt;0</title>
<path fill="none" stroke="#b53030" d="M375.4332,-110.8235C375.4332,-110.8235 415.7908,-110.8235 415.7908,-110.8235"/>
<polygon fill="#b53030" stroke="#b53030" points="415.7909,-113.4486 423.2908,-110.8235 415.7908,-108.1986 415.7909,-113.4486"/>
</g>
<!-- 2&#45;&gt;0 -->
<g id="edge39" class="edge">
<title>2&#45;&gt;0</title>
<path fill="none" stroke="#b53030" d="M375.4332,-111.8824C375.4332,-111.8824 415.7908,-111.8824 415.7908,-111.8824"/>
<polygon fill="#b53030" stroke="#b53030" points="415.7909,-114.5075 423.2908,-111.8824 415.7908,-109.2575 415.7909,-114.5075"/>
</g>
<!-- 2&#45;&gt;0 -->
<g id="edge40" class="edge">
<title>2&#45;&gt;0</title>
<path fill="none" stroke="#b53030" d="M375.4332,-112.9412C375.4332,-112.9412 415.7908,-112.9412 415.7908,-112.9412"/>
<polygon fill="#b53030" stroke="#b53030" points="415.7909,-115.5663 423.2908,-112.9412 415.7908,-110.3163 415.7909,-115.5663"/>
</g>
<!-- 2&#45;&gt;0 -->
<g id="edge41" class="edge">
<title>2&#45;&gt;0</title>
<path fill="none" stroke="#b53030" d="M375.4325,-91.4286C423.2711,-91.4286 504.375,-91.4286 504.375,-91.4286 504.375,-91.4286 504.375,-102.5 504.375,-102.5 504.375,-102.5 502.7889,-102.5 502.7889,-102.5"/>
<polygon fill="#b53030" stroke="#b53030" points="502.789,-99.8751 495.2889,-102.5 502.7889,-105.1251 502.789,-99.8751"/>
</g>
<!-- 2&#45;&gt;0 -->
<g id="edge42" class="edge">
<title>2&#45;&gt;0</title>
<path fill="none" stroke="#b53030" d="M375.4332,-97.0588C375.4332,-97.0588 415.7908,-97.0588 415.7908,-97.0588"/>
<polygon fill="#b53030" stroke="#b53030" points="415.7909,-99.6839 423.2908,-97.0588 415.7908,-94.4339 415.7909,-99.6839"/>
</g>
<!-- 2&#45;&gt;0 -->
<g id="edge43" class="edge">
<title>2&#45;&gt;0</title>
<path fill="none" stroke="#b53030" d="M375.6543,-90.2857C425.8899,-90.2857 513.375,-90.2857 513.375,-90.2857 513.375,-90.2857 513.375,-109 513.375,-109 513.375,-109 502.9273,-109 502.9273,-109"/>
<polygon fill="#b53030" stroke="#b53030" points="502.9273,-106.3751 495.4273,-109 502.9272,-111.6251 502.9273,-106.3751"/>
</g>
<!-- 2&#45;&gt;0 -->
<g id="edge44" class="edge">
<title>2&#45;&gt;0</title>
<path fill="none" stroke="#b53030" d="M375.7303,-89.1429C428.2872,-89.1429 522.375,-89.1429 522.375,-89.1429 522.375,-89.1429 522.375,-115.5 522.375,-115.5 522.375,-115.5 502.835,-115.5 502.835,-115.5"/>
<polygon fill="#b53030" stroke="#b53030" points="502.835,-112.8751 495.335,-115.5 502.8349,-118.1251 502.835,-112.8751"/>
</g>
<!-- 2&#45;&gt;0 -->
<g id="edge45" class="edge">
<title>2&#45;&gt;0</title>
<path fill="none" stroke="#b53030" d="M306.8037,-106.9412C289.5894,-106.9412 272.375,-106.9412 272.375,-106.9412 272.375,-106.9412 272.375,-178 272.375,-178 272.375,-178 473.375,-178 473.375,-178 473.375,-178 473.375,-129.8039 473.375,-129.8039"/>
<polygon fill="#b53030" stroke="#b53030" points="476.0001,-129.8039 473.375,-122.3039 470.7501,-129.8039 476.0001,-129.8039"/>
</g>
<!-- 2&#45;&gt;0 -->
<g id="edge46" class="edge">
<title>2&#45;&gt;0</title>
<path fill="none" stroke="#b53030" d="M306.9873,-105.5294C288.4797,-105.5294 269.375,-105.5294 269.375,-105.5294 269.375,-105.5294 269.375,-182 269.375,-182 269.375,-182 479.375,-182 479.375,-182 479.375,-182 479.375,-129.5509 479.375,-129.5509"/>
<polygon fill="#b53030" stroke="#b53030" points="482.0001,-129.5509 479.375,-122.0509 476.7501,-129.551 482.0001,-129.5509"/>
</g>
<!-- 2&#45;&gt;0 -->
<g id="edge47" class="edge">
<title>2&#45;&gt;0</title>
<path fill="none" stroke="#b53030" d="M306.871,-104.1176C287.1922,-104.1176 266.375,-104.1176 266.375,-104.1176 266.375,-104.1176 266.375,-186 266.375,-186 266.375,-186 484.375,-186 484.375,-186 484.375,-186 484.375,-129.562 484.375,-129.562"/>
<polygon fill="#b53030" stroke="#b53030" points="487.0001,-129.562 484.375,-122.062 481.7501,-129.562 487.0001,-129.562"/>
</g>
<!-- 2&#45;&gt;0 -->
<g id="edge48" class="edge">
<title>2&#45;&gt;0</title>
<path fill="none" stroke="#b53030" d="M306.8738,-102.7059C285.6234,-102.7059 262.375,-102.7059 262.375,-102.7059 262.375,-102.7059 262.375,-190 262.375,-190 262.375,-190 490.375,-190 490.375,-190 490.375,-190 490.375,-129.5141 490.375,-129.5141"/>
<polygon fill="#b53030" stroke="#b53030" points="493.0001,-129.514 490.375,-122.0141 487.7501,-129.5141 493.0001,-129.514"/>
</g>
<!-- 2&#45;&gt;0 -->
<g id="edge49" class="edge">
<title>2&#45;&gt;0</title>
<path fill="none" stroke="#b53030" d="M375.4332,-98.1176C375.4332,-98.1176 415.7908,-98.1176 415.7908,-98.1176"/>
<polygon fill="#b53030" stroke="#b53030" points="415.7909,-100.7427 423.2908,-98.1176 415.7908,-95.4927 415.7909,-100.7427"/>
</g>
<!-- 2&#45;&gt;0 -->
<g id="edge50" class="edge">
<title>2&#45;&gt;0</title>
<path fill="none" stroke="#b53030" d="M375.4332,-99.1765C375.4332,-99.1765 415.7908,-99.1765 415.7908,-99.1765"/>
<polygon fill="#b53030" stroke="#b53030" points="415.7909,-101.8016 423.2908,-99.1765 415.7908,-96.5516 415.7909,-101.8016"/>
</g>
<!-- 2&#45;&gt;0 -->
<g id="edge51" class="edge">
<title>2&#45;&gt;0</title>
<path fill="none" stroke="#b53030" d="M375.4332,-100.2353C375.4332,-100.2353 415.7908,-100.2353 415.7908,-100.2353"/>
<polygon fill="#b53030" stroke="#b53030" points="415.7909,-102.8604 423.2908,-100.2353 415.7908,-97.6104 415.7909,-102.8604"/>
</g>
<!-- 2&#45;&gt;0 -->
<g id="edge52" class="edge">
<title>2&#45;&gt;0</title>
<path fill="none" stroke="#b53030" d="M375.4332,-101.2941C375.4332,-101.2941 415.7908,-101.2941 415.7908,-101.2941"/>
<polygon fill="#b53030" stroke="#b53030" points="415.7909,-103.9192 423.2908,-101.2941 415.7908,-98.6692 415.7909,-103.9192"/>
</g>
<!-- cluster_0hidden -->
<!-- file_main.js -->
<g id="node12" class="node">
<title>file_main.js</title>
<polygon fill="#c2cdef" stroke="#3051b5" points="374.2422,-70 308.2227,-70 308.2227,-44 374.2422,-44 374.2422,-70"/>
<text text-anchor="middle" x="341.2324" y="-53.4" font-family="gotham-book,sans-serif" font-size="12.00" fill="#021859">main.js</text>
</g>
<!-- cluster_0hidden&#45;&gt;file_main.js -->
<g id="edge53" class="edge">
<title>cluster_0hidden&#45;&gt;file_main.js</title>
<path fill="none" stroke="#3051b5" d="M130.375,-80.0017C130.375,-70.5369 130.375,-57 130.375,-57 130.375,-57 300.3214,-57 300.3214,-57"/>
<polygon fill="#3051b5" stroke="#3051b5" points="300.3215,-59.6251 307.8214,-57 300.3214,-54.3751 300.3215,-59.6251"/>
</g>
<!-- file_main.js.map -->
<g id="node13" class="node">
<title>file_main.js.map</title>
<polygon fill="#c2cdef" stroke="#3051b5" points="387.4204,-26 295.0444,-26 295.0444,0 387.4204,0 387.4204,-26"/>
<text text-anchor="middle" x="341.2324" y="-9.4" font-family="gotham-book,sans-serif" font-size="12.00" fill="#021859">main.js.map</text>
</g>
<!-- cluster_0hidden&#45;&gt;file_main.js.map -->
<g id="edge54" class="edge">
<title>cluster_0hidden&#45;&gt;file_main.js.map</title>
<path fill="none" stroke="#3051b5" d="M140.375,-80.0006C140.375,-60.1334 140.375,-13 140.375,-13 140.375,-13 287.3995,-13 287.3995,-13"/>
<polygon fill="#3051b5" stroke="#3051b5" points="287.3995,-15.6251 294.8995,-13 287.3994,-10.3751 287.3995,-15.6251"/>
</g>
<!-- file_./index.html -->
<g id="node6" class="node">
<title>file_./index.html</title>
<polygon fill="#c2cdef" stroke="#3051b5" points="170.6363,-220 88.2524,-220 88.2524,-194 170.6363,-194 170.6363,-220"/>
<text text-anchor="middle" x="129.4443" y="-203.4" font-family="gotham-book,sans-serif" font-size="12.00" fill="#021859">index.html</text>
</g>
<!-- file_2a0f3c039a9a4b3060d43ee565c8b211.jpg -->
<g id="node7" class="node">
<title>file_2a0f3c039a9a4b3060d43ee565c8b211.jpg</title>
<polygon fill="#c2cdef" stroke="#3051b5" points="257.2825,-264 1.6062,-264 1.6062,-238 257.2825,-238 257.2825,-264"/>
<text text-anchor="middle" x="129.4443" y="-247.4" font-family="gotham-book,sans-serif" font-size="12.00" fill="#021859">2a0f3c039a9a4b3060d43ee565c8b211.jpg</text>
</g>
<!-- file_95e3a217614115d30e3991275b5cf5fa.jpg -->
<g id="node8" class="node">
<title>file_95e3a217614115d30e3991275b5cf5fa.jpg</title>
<polygon fill="#c2cdef" stroke="#3051b5" points="255.6164,-308 3.2722,-308 3.2722,-282 255.6164,-282 255.6164,-308"/>
<text text-anchor="middle" x="129.4443" y="-291.4" font-family="gotham-book,sans-serif" font-size="12.00" fill="#021859">95e3a217614115d30e3991275b5cf5fa.jpg</text>
</g>
<!-- file_9ce7a4b799d231e27b766759ecb9307c.jpg -->
<g id="node9" class="node">
<title>file_9ce7a4b799d231e27b766759ecb9307c.jpg</title>
<polygon fill="#c2cdef" stroke="#3051b5" points="258.833,-352 .0556,-352 .0556,-326 258.833,-326 258.833,-352"/>
<text text-anchor="middle" x="129.4443" y="-335.4" font-family="gotham-book,sans-serif" font-size="12.00" fill="#021859">9ce7a4b799d231e27b766759ecb9307c.jpg</text>
</g>
<!-- file_a9de46da33eb4c3e89716f873a72ada4.jpg -->
<g id="node10" class="node">
<title>file_a9de46da33eb4c3e89716f873a72ada4.jpg</title>
<polygon fill="#c2cdef" stroke="#3051b5" points="257.8408,-396 1.0478,-396 1.0478,-370 257.8408,-370 257.8408,-396"/>
<text text-anchor="middle" x="129.4443" y="-379.4" font-family="gotham-book,sans-serif" font-size="12.00" fill="#021859">a9de46da33eb4c3e89716f873a72ada4.jpg</text>
</g>
<!-- file_c7591241faf3c4e80dafd7becaa146fe.jpg -->
<g id="node11" class="node">
<title>file_c7591241faf3c4e80dafd7becaa146fe.jpg</title>
<polygon fill="#c2cdef" stroke="#3051b5" points="251.9741,-440 6.9146,-440 6.9146,-414 251.9741,-414 251.9741,-440"/>
<text text-anchor="middle" x="129.4443" y="-423.4" font-family="gotham-book,sans-serif" font-size="12.00" fill="#021859">c7591241faf3c4e80dafd7becaa146fe.jpg</text>
</g>
</g>
</svg>
